<svg xmlns="http://www.w3.org/2000/svg" viewBox="0 0 840.03 222.25"><defs><style>.cls-1{fill:#142540;}.cls-2{fill:#3bbaf2;}.cls-3{fill:#33d374;}.cls-4{fill:#ff6631;}.cls-5{fill:#ffd44d;}</style></defs><g id="Layer_2" data-name="Layer 2"><g id="Layer_1-2" data-name="Layer 1"><path class="cls-1" d="M278.73,125.27a30,30,0,0,1-8.15-20.56c0-15.51,9.89-27.92,29.47-29.67l32.19-2.9v-8c0-15.32-8.33-19.58-20.55-19.58s-20.36,5.23-20.36,17.84H273.88c0-18.62,16.87-31.8,38-31.8,21.33,0,37.43,10.47,37.43,33.74v52.55h14.74v14.93H334.57l-.38-18.23h-.78c-5.43,14-16.29,20.56-31,20.56-9.69,0-18-3.1-23.65-8.92M332.24,90V85.52l-35.09,3.29c-7.18.58-8.15,3.88-8.15,9.5V107c0,9.11,6.79,13.19,17.84,13.19,15.71,0,25.4-12.41,25.4-30.26"/><path class="cls-1" d="M442.12,131.86V115.77c-6.21,11.82-16.48,18.42-31.22,18.42-26.76,0-39.56-23.08-39.56-51.78S384,30.64,410.51,30.64c14.74,0,25.4,6.59,31.61,18.42V0h17.45V131.86Zm0-57.79c0-17.06-9.7-29.47-27.15-29.47-14.35,0-25.21,9.11-25.21,22.49V97.73c0,13.38,10.86,22.5,25.21,22.5,17.45,0,27.15-12.42,27.15-29.48Z"/><path class="cls-1" d="M485.89,125.27a30.08,30.08,0,0,1-8.14-20.56c0-15.51,9.89-27.92,29.47-29.67l32.19-2.9v-8c0-15.32-8.34-19.58-20.55-19.58s-20.37,5.23-20.37,17.84H481c0-18.62,16.87-31.8,38-31.8,21.33,0,37.43,10.47,37.43,33.74v52.55h14.73v14.93H541.74l-.39-18.23h-.77c-5.43,14-16.29,20.56-31,20.56-9.7,0-18-3.1-23.66-8.92M539.41,90V85.52l-35.1,3.29c-7.17.58-8.14,3.88-8.14,9.5V107c0,9.11,6.79,13.19,17.84,13.19,15.7,0,25.4-12.41,25.4-30.26"/><path class="cls-1" d="M585.67,164.83V33h17.46v16.1c6.2-11.83,16.67-18.42,31.61-18.42,26.56,0,39.17,23.07,39.17,51.77s-12.61,51.78-39.17,51.78c-14.94,0-25.41-6.6-31.61-18.42v49.06Zm17.46-74.08c0,17.07,9.69,29.48,27.15,29.48,14.54,0,25.2-9.12,25.2-22.5V67.09c0-13.38-10.66-22.49-25.2-22.49-17.46,0-27.15,12.41-27.15,29.47Z"/><path class="cls-1" d="M753.12,125.27A30.09,30.09,0,0,1,745,104.71c0-15.51,9.89-27.92,29.48-29.67l32.19-2.9v-8c0-15.32-8.34-19.58-20.56-19.58s-20.36,5.23-20.36,17.84H748.27c0-18.62,16.87-31.8,38-31.8,21.33,0,37.43,10.47,37.43,33.74v52.55h14.73v14.93H809l-.39-18.23h-.78c-5.43,14-16.28,20.56-31,20.56-9.7,0-18-3.1-23.66-8.92M806.64,90V85.52l-35.1,3.29c-7.17.58-8.14,3.88-8.14,9.5V107c0,9.11,6.78,13.19,17.84,13.19,15.7,0,25.4-12.41,25.4-30.26"/><rect class="cls-1" x="692.85" width="17.26" height="32.96"/><rect class="cls-1" x="710.21" y="32.97" width="22.58" height="14.93"/><polygon class="cls-1" points="710.11 47.9 692.85 47.9 692.85 131.86 732.8 131.86 732.8 116.93 710.11 116.93 710.11 47.9"/><path class="cls-1" d="M98.11,146.59v60.58a10.95,10.95,0,0,0,21.89,0V146.59H98.11Z"/><path class="cls-1" d="M120,71.52V10.94a10.95,10.95,0,0,0-21.89,0V71.52H120Z"/><path class="cls-1" d="M206.27,98.11H145.69V120h60.58a10.95,10.95,0,0,0,0-21.89"/><path class="cls-1" d="M71.52,98.11H10.94a10.95,10.95,0,0,0,0,21.89H71.52V98.11Z"/><path class="cls-2" d="M122.2,137.68l48.49,48.49a10.95,10.95,0,1,0,15.48-15.48l-48.49-48.48H122.2Z"/><path class="cls-3" d="M95.9,80.43,47.42,31.94A10.95,10.95,0,0,0,31.94,47.42L80.43,95.9H95.9Z"/><path class="cls-4" d="M137.68,95.91l48.48-48.49a10.94,10.94,0,1,0-15.47-15.48L122.2,80.43V95.91Z"/><path class="cls-5" d="M80.43,122.2,31.94,170.69a10.95,10.95,0,1,0,15.48,15.48L95.9,137.68V122.2Z"/><path class="cls-1" d="M466,190.9h4.55v4.24a7.39,7.39,0,0,1,7.18-4.85,7.19,7.19,0,0,1,7.38,5.31,7.76,7.76,0,0,1,7.59-5.31c4.5,0,8,2.58,8,9.2v17.2h-4.56V200c0-3.74-1.36-6.07-4.7-6.07-3.18,0-5.81,3.19-5.81,7.69v15.07h-4.55V200c0-3.74-1.37-6.07-4.71-6.07-3.18,0-5.81,3.19-5.81,7.69v15.07H466Z"/><path class="cls-1" d="M507.34,203.79c0-7.89,4.05-13.5,11.13-13.5,7.38,0,11,5.46,11,12.34v2.43H512.15v2.73c0,3.74,3.13,5.86,6.37,5.86s5.92-1.62,6.22-5.16h4.55c-.46,5.52-5.31,8.8-10.82,8.8C511,217.29,507.34,211.68,507.34,203.79ZM524.79,200a6.33,6.33,0,0,0-12.64,0v1.42h12.64Zm-5.31-18.46h5.31l-5.36,6.17h-3.95Z"/><path class="cls-1" d="M537.93,194.79h-4.35V190.9h4.35v-8.6h4.5v8.6h5.92v3.89h-5.92v18h5.92v3.9H537.93Z"/><path class="cls-1" d="M567.16,216.69V182.3h4.55v34.39Z"/><path class="cls-1" d="M578.53,203.79c0-7.89,4.05-13.5,11.13-13.5,7.38,0,11,5.46,11,12.34v2.43H583.34v2.73c0,3.74,3.13,5.86,6.37,5.86s5.91-1.62,6.22-5.16h4.55c-.46,5.52-5.31,8.8-10.82,8.8C582.22,217.29,578.53,211.68,578.53,203.79ZM596,200a6.33,6.33,0,0,0-12.64,0v1.42H596Z"/><path class="cls-1" d="M609.12,216.69v-21.9h-4.35V190.9h4.35v-8.6h10.42v3.89h-5.92v4.71H619v3.89h-5.41v21.9Z"/><path class="cls-1" d="M628.33,216.69l-3.13,5.56h-2.43l3-5.56h-3v-5.57h5.56Z"/><path class="cls-1" d="M663.12,212.44a7.6,7.6,0,0,1-7.53,4.85c-4.76,0-8.35-2.57-8.35-9.2V190.9h4.55v16.68c0,3.7,1.22,6.07,5.06,6.07s6.27-3.18,6.27-7.68V190.9h4.55v25.79h-4.55Z"/><path class="cls-1" d="M680.51,187.05h-4.75V182.3h4.75Zm-4.65,29.64V190.9h4.55v25.79Z"/><path class="cls-1" d="M690.42,194.79h-4.35V190.9h4.35v-8.6h4.5v8.6h5.92v3.89h-5.92v18h5.92v3.9H690.42Z"/><path class="cls-1" d="M719.65,216.69V182.3h4.55v34.39Z"/><path class="cls-1" d="M737,187.05h-4.75V182.3H737Zm-4.65,29.64V190.9h4.55v25.79Z"/><path class="cls-1" d="M743.76,203.79c0-7.89,4-13.5,11.13-13.5,7.38,0,11,5.46,11,12.34v2.43H748.57v2.73c0,3.74,3.13,5.86,6.37,5.86s5.91-1.62,6.22-5.16h4.55c-.46,5.52-5.31,8.8-10.82,8.8C747.45,217.29,743.76,211.68,743.76,203.79ZM761.21,200a6.33,6.33,0,0,0-12.64,0v1.42h12.64Z"/><path class="cls-1" d="M774.35,216.69v-21.9H770V190.9h4.35v-8.6h10.42v3.89h-5.92v4.71h5.41v3.89h-5.41v21.9Z"/><path class="cls-1" d="M806.51,216.69v-4.2a8.58,8.58,0,0,1-8.14,4.8c-7,0-10.32-6-10.32-13.5s3.29-13.5,10.22-13.5a8.72,8.72,0,0,1,8.24,4.8V182.3h4.55v34.39Zm0-15.07c0-4.45-2.53-7.69-7.08-7.69-3.74,0-6.57,2.38-6.57,5.87v8c0,3.49,2.83,5.86,6.57,5.86,4.55,0,7.08-3.23,7.08-7.68Z"/><path class="cls-1" d="M817.88,203.79c0-7.89,4-13.5,11.13-13.5,7.38,0,11,5.46,11,12.34v2.43H822.69v2.73c0,3.74,3.13,5.86,6.37,5.86s5.92-1.62,6.22-5.16h4.55c-.45,5.52-5.31,8.8-10.82,8.8C821.57,217.29,817.88,211.68,817.88,203.79ZM835.33,200a6.33,6.33,0,0,0-12.64,0v1.42h12.64Z"/></g></g></svg>